<?xml version="1.0" encoding="utf-8"?>
<!-- Generator: Adobe Illustrator 25.2.3, SVG Export Plug-In . SVG Version: 6.00 Build 0)  -->
<svg version="1.1" xmlns="http://www.w3.org/2000/svg" xmlns:xlink="http://www.w3.org/1999/xlink" x="0px" y="0px"
	 viewBox="0 0 1230 950" style="enable-background:new 0 0 1230 950;" xml:space="preserve">
<style type="text/css">
	.st0{display:none;opacity:0.29;}
	.st1{fill:#FFFFFF;stroke:#000000;stroke-width:20;stroke-miterlimit:10;}
	.st2{fill:#FFFFFF;}
	.st3{fill:none;}
</style>
<g id="prev" class="st0">
</g>
<g id="Слой_1">
	<path class="st1" d="M150.13,143.39c0,0,78.89-97.48,324.77-110.54C584.46,27.03,868.04,21,896.52,28
		c28.48,7,71.41,12.61,115.43,91.14c11.74,16.48,34.24,97.93,46.96,102.78c34.24,45.57,114.45,77.57,114.45,150.29
		c5.24,53.49-21.9,100.32-76.3,141.56c-29.42,26.43-46.62,64.16-58.69,106.66c-15.94,33.31-57.37,69.02-119.34,106.66L717.5,827.94
		c-68.67,36.94-135.71,57.65-201.52,65.93C73.83,989.87,85.56,851.21,113.93,650.5S61.11,429.42,56.22,357.67
		s74.35-132.84,74.35-132.84s13.7-18.42,17.61-39.75S150.13,143.39,150.13,143.39z"/>
	<g>
		<path d="M309.2,51.61c50.9,10.12,102.7,15.9,154.64,15.51c25.96-0.12,51.92-1.75,77.84-4.36c25.92-2.56,51.8-6.16,77.88-8.91
			c13.04-1.37,26.15-2.43,39.3-2.93c13.15-0.44,26.36-0.3,39.49,0.86c13.13,1.18,26.2,3.2,38.99,6.4
			c12.79,3.15,25.32,7.28,37.49,12.24c24.32,10.01,47.18,23.14,68.8,37.88c10.81,7.39,21.33,15.17,31.64,23.21
			c10.3,8.06,20.32,16.46,30.23,24.98c-10.09-8.31-20.28-16.49-30.73-24.33c-10.46-7.82-21.12-15.37-32.05-22.51
			c-21.85-14.25-44.84-26.82-69.09-36.21c-12.13-4.66-24.57-8.47-37.22-11.31c-12.64-2.89-25.52-4.6-38.43-5.5
			c-12.92-0.87-25.91-0.74-38.86-0.04c-12.96,0.76-25.89,2.08-38.82,3.71c-25.85,3.26-51.68,7.4-77.73,10.52
			c-26.03,3.17-52.27,5.37-78.58,6.03c-52.64,1.48-105.39-3.29-157.2-12.48L309.2,51.61z"/>
	</g>
	<g>
		<path d="M270.28,113.17c5.5-4.08,11.29-7.84,17.5-10.93c6.2-3.09,12.9-5.4,19.84-6.59c6.95-1.24,14.04-1.25,20.98-0.75
			c6.94,0.53,13.76,1.48,20.51,2.51c6.76,1.03,13.48,2.04,20.2,2.95c6.71,0.96,13.44,1.75,20.18,2.39
			c6.74,0.64,13.48,1.15,20.24,1.58c6.76,0.32,13.52,0.75,20.3,0.88c1.69,0.04,3.39,0.09,5.08,0.15l5.12,0.09l5.12,0.08l5.11,0.2
			l10.22,0.43c3.4,0.1,6.79,0.09,10.19,0.13c6.8,0.18,13.59-0.17,20.39-0.31c3.4-0.16,6.79-0.42,10.19-0.63
			c3.4-0.2,6.79-0.46,10.18-0.83c27.15-2.49,53.85-8.2,80.65-13.54c13.42-2.61,26.95-5.06,40.66-6.46
			c13.71-1.44,27.58-1.85,41.42-1.09c13.86,0.66,27.61,2.89,41.12,5.93c13.56,2.94,26.7,7.41,39.62,12.26
			c25.69,10.16,50.11,23.02,73.42,37.45c23.34,14.4,45.66,30.3,67.22,47.09l-0.46,0.65c-5.81-3.6-11.57-7.27-17.31-10.94l-4.31-2.75
			l-4.37-2.66c-2.93-1.75-5.82-3.56-8.72-5.33l-8.71-5.33l-8.81-5.16l-8.8-5.16c-2.94-1.71-5.94-3.31-8.9-4.98
			c-23.75-13.19-48.05-25.35-73.28-34.92c-3.12-1.28-6.33-2.3-9.5-3.44l-4.77-1.67l-2.38-0.84c-0.8-0.26-1.61-0.49-2.41-0.73
			l-9.67-2.88c-1.6-0.51-3.24-0.89-4.87-1.31l-4.89-1.23l-4.89-1.23l-4.94-0.99l-4.94-0.98c-1.65-0.34-3.29-0.67-4.96-0.88
			l-9.96-1.47l-10.03-0.97c-26.81-2.09-53.88,0.48-80.84,4.32c-26.99,3.85-53.92,8.76-81.11,11.8c-6.78,0.89-13.61,1.45-20.42,2.15
			c-6.83,0.5-13.65,1.18-20.51,1.45c-3.42,0.16-6.85,0.39-10.28,0.5l-10.25,0.19c-6.86,0.01-13.6,0.52-20.5,0.48
			c-13.74,0.1-27.51-0.54-41.19-2.07c-6.84-0.75-13.66-1.65-20.44-2.72c-6.78-1.08-13.52-2.34-20.22-3.56
			c-6.71-1.19-13.36-2.47-20.01-3.28c-3.32-0.36-6.65-0.69-9.96-0.74c-1.66-0.09-3.31-0.01-4.97,0c-0.83,0.02-1.65,0.1-2.47,0.15
			c-0.82,0.06-1.65,0.09-2.47,0.21c-6.56,0.76-13.07,2.4-19.3,4.93c-6.25,2.49-12.29,5.63-18.2,9.04L270.28,113.17z"/>
	</g>
	<g>
		<path d="M259.5,195.5c0.28-4.54,1.47-9.02,3.04-13.33c1.59-4.32,3.76-8.43,6.27-12.33c2.5-3.92,5.59-7.44,8.83-10.79
			c1.68-1.61,3.36-3.26,5.22-4.67c0.91-0.73,1.81-1.48,2.74-2.18l2.88-1.99c7.72-5.29,16.37-9.11,25.25-11.82
			c1.11-0.33,2.21-0.75,3.34-1.01l3.38-0.82c2.26-0.54,4.51-1.13,6.79-1.47c2.28-0.39,4.56-0.81,6.85-1.14l6.88-0.76
			c2.29-0.3,4.6-0.33,6.89-0.46l3.45-0.17c1.15-0.05,2.3-0.13,3.45-0.1l6.89,0.07c1.15,0.02,2.3,0,3.44,0.05l3.43,0.21l6.86,0.44
			c2.29,0.14,4.55,0.48,6.82,0.72l6.81,0.8l6.75,1.12c17.99,2.98,35.62,7.62,52.74,13.63c-17.86-3.19-35.63-6.29-53.47-8.22
			l-6.69-0.7l-6.7-0.48c-2.23-0.14-4.46-0.38-6.69-0.45l-6.69-0.22l-3.34-0.12c-1.11-0.03-2.23,0.01-3.34,0.01l-6.67,0.06
			c-2.23,0-4.43,0.21-6.65,0.3c-2.21,0.14-4.44,0.18-6.63,0.48l-6.6,0.69c-2.19,0.3-4.36,0.71-6.54,1.04
			c-2.19,0.29-4.33,0.8-6.48,1.28l-3.22,0.71c-1.07,0.24-2.11,0.59-3.17,0.87c-8.47,2.32-16.65,5.6-24.18,10.05
			c-7.49,4.49-14.35,10.12-19.84,17.05c-2.78,3.43-5.21,7.16-7.27,11.11c-0.51,0.99-1.03,1.98-1.47,3.01
			c-0.48,1.01-0.9,2.05-1.3,3.1C260.72,191.15,260.01,193.29,259.5,195.5z"/>
	</g>
	<g>
		<path d="M612.5,125.5c11.14-1.32,22.35-1.88,33.57-2.25c11.22-0.28,22.45-0.27,33.68,0.18c11.23,0.36,22.45,1.25,33.65,2.38
			c5.6,0.57,11.18,1.33,16.76,2.15c5.57,0.82,11.14,1.73,16.68,2.79c11.07,2.19,22.07,4.82,32.89,8.17
			c10.78,3.45,21.45,7.42,31.55,12.66c10.15,5.11,19.76,11.45,28.12,19.19c8.29,7.77,15.24,17.17,19.1,27.74
			c-5.28-9.91-12.73-18.33-21.35-25.14c-4.29-3.44-8.85-6.53-13.59-9.31l-3.58-2.04l-3.63-1.95c-2.46-1.23-4.92-2.46-7.44-3.57
			c-1.24-0.59-2.52-1.12-3.78-1.65c-1.27-0.54-2.53-1.08-3.82-1.57c-2.55-1.04-5.13-2.01-7.72-2.96
			c-5.19-1.86-10.46-3.53-15.77-5.05c-10.62-3.07-21.41-5.61-32.31-7.64c-10.88-2.16-21.86-3.83-32.89-5.24
			c-11.02-1.5-22.1-2.51-33.2-3.52C657.21,127.04,634.9,125.94,612.5,125.5z"/>
	</g>
	<g>
		<path d="M425.65,173.18c0.83,0.03,1.59,0.2,2.39,0.36c0.77,0.2,1.53,0.45,2.28,0.72c1.51,0.55,2.94,1.29,4.3,2.15
			c2.74,1.71,5.13,3.96,7.18,6.49c4.08,5.1,6.58,11.37,7.58,17.64c1.02,6.3,0.61,12.63-0.79,18.58c-1.48,5.94-3.91,11.56-7.75,16.47
			l-0.68-0.18l0.94-4.17c0.28-1.4,0.52-2.8,0.78-4.2c0.24-1.4,0.44-2.81,0.66-4.21c0.18-1.41,0.32-2.82,0.47-4.23
			c0.46-5.65,0.4-11.36-0.55-16.93c-0.86-5.57-2.62-11.03-5.49-15.88c-1.44-2.42-3.12-4.7-5.08-6.72c-1.92-2.04-4.12-3.91-6.55-5.24
			L425.65,173.18z"/>
	</g>
	<g>
		<path d="M597.05,195.57c-0.52-0.68-0.9-1.39-1.32-2.1c-0.37-0.72-0.71-1.45-1.04-2.2c-0.67-1.49-1.16-3.01-1.59-4.57
			c-0.83-3.11-1.25-6.32-1.31-9.56c-0.1-6.47,1.31-13.08,4.16-19.11c0.78-1.48,1.53-2.97,2.44-4.37c0.44-0.71,0.91-1.4,1.41-2.07
			c0.5-0.67,0.96-1.37,1.51-1.99c1.1-1.26,2.16-2.54,3.41-3.65c1.16-1.19,2.51-2.17,3.79-3.19c5.37-3.83,11.54-6.33,18.08-6.57
			l0.37,0.71c-1.25,0.75-2.53,1.44-3.75,2.24c-1.2,0.82-2.44,1.58-3.58,2.5l-1.75,1.3l-1.67,1.4l-0.83,0.7l-0.79,0.75l-1.57,1.5
			c-2,2.09-3.89,4.3-5.54,6.68c-1.63,2.39-3.08,4.9-4.32,7.51c-2.5,5.22-4.18,10.83-5.03,16.57c-0.43,2.87-0.65,5.78-0.7,8.68
			c-0.08,2.9,0.02,5.84,0.4,8.7L597.05,195.57z"/>
	</g>
	<g>
		<path d="M159.33,452.97c-7.08-1.56-13.92-3.91-20.64-6.62c-6.7-2.76-13.25-5.96-19.51-9.78c-6.27-3.8-12.27-8.2-17.68-13.46
			c-2.69-2.65-5.22-5.52-7.42-8.71c-0.53-0.81-1.09-1.6-1.59-2.44c-0.49-0.85-0.96-1.71-1.43-2.56c-0.43-0.89-0.85-1.79-1.25-2.68
			c-0.4-0.9-0.67-1.75-1.01-2.63c-2.63-6.94-4.3-14.2-5.23-21.49c-0.91-7.29-1.09-14.6-0.77-21.85c0.35-7.24,1.23-14.46,2.96-21.54
			c1.75-7.06,4.18-14,7.46-20.62c3.23-6.64,7.42-12.87,12.37-18.43l1.86-2.09l0.94-1.04l1.01-0.96c1.35-1.28,2.71-2.55,4.08-3.82
			c1.38-1.26,2.88-2.35,4.33-3.52l2.19-1.74c0.73-0.58,1.52-1.06,2.28-1.6l4.61-3.14c1.57-0.99,3.19-1.9,4.78-2.84
			c3.17-1.95,6.54-3.47,9.85-5.13c1.65-0.86,3.37-1.52,5.07-2.22l5.14-2.07c1.73-0.63,3.49-1.16,5.24-1.74
			c1.75-0.55,3.49-1.18,5.26-1.66c3.56-0.87,7.1-1.86,10.68-2.61c3.59-0.66,7.18-1.38,10.78-1.94l10.83-1.34l10.85-0.72
			c1.8-0.14,3.61-0.16,5.42-0.17l5.42-0.04c1.81,0.01,3.61-0.09,5.41,0.02l5.4,0.25c7.2,0.21,14.37,1.06,21.49,1.95l-0.03,1
			c-7.14,0.86-14.24,1.28-21.3,2.16c-7.07,0.69-14.07,1.71-21.05,2.67c-13.93,2.09-27.65,4.99-40.9,9.01
			c-13.25,4-26.08,9.17-37.7,16.4c-0.72,0.46-1.48,0.86-2.18,1.36l-2.08,1.48l-2.09,1.48c-0.69,0.51-1.42,0.95-2.06,1.52
			c-1.31,1.09-2.63,2.17-3.96,3.23l-0.99,0.81l-0.93,0.87l-1.88,1.73l-1.89,1.74c-0.62,0.59-1.17,1.24-1.76,1.86
			c-1.16,1.26-2.41,2.45-3.51,3.76l-3.25,4c-1.06,1.36-1.97,2.82-2.98,4.23c-3.8,5.76-6.91,12.08-8.95,18.77
			c-2.03,6.7-3,13.73-2.99,20.73c0,7.01,1.12,13.99,2.96,20.69c1.86,6.71,4.53,13.12,7.49,19.3c5.42,11.85,15.82,21.1,27.01,29.26
			c11.29,8.12,23.58,15.18,36.18,21.95L159.33,452.97z"/>
	</g>
	<g>
		<path d="M999.5,251.5c2.45-0.73,5-0.96,7.51-1.24c2.53-0.26,5.06-0.4,7.59-0.52c5.07-0.2,10.15-0.12,15.22,0.16
			c10.14,0.61,20.25,2.06,30.17,4.46c4.95,1.23,9.86,2.64,14.68,4.35c4.81,1.74,9.54,3.7,14.12,5.99c4.56,2.32,8.98,4.92,13.16,7.85
			c4.13,3.01,8.07,6.26,11.54,9.95c-4.32-2.66-8.62-5.19-13.06-7.43c-4.46-2.21-8.98-4.23-13.57-6.06
			c-4.61-1.79-9.27-3.42-13.99-4.89c-2.37-0.7-4.73-1.44-7.12-2.06c-1.19-0.34-2.38-0.67-3.58-0.96c-1.2-0.3-2.39-0.63-3.6-0.9
			c-9.62-2.33-19.38-4.15-29.23-5.61c-4.93-0.73-9.88-1.36-14.85-1.91c-2.49-0.31-4.98-0.52-7.48-0.75
			c-1.25-0.12-2.5-0.21-3.76-0.29C1002.01,251.53,1000.76,251.43,999.5,251.5z"/>
	</g>
	<g>
		<path d="M983.81,266.79c6.1-0.89,12.26-1.22,18.43-1.42c6.16-0.16,12.34-0.04,18.51,0.32c12.33,0.76,24.67,2.47,36.73,5.63
			c12.02,3.17,23.9,7.75,34.33,14.93c5.17,3.61,9.94,7.9,13.77,12.92c3.78,5.05,6.62,10.79,7.92,16.83
			c-2.57-5.6-5.98-10.65-10.16-14.91c-4.18-4.27-8.97-7.84-14.08-10.87c-10.27-6.03-21.68-10.02-33.3-13.1
			c-11.65-3.06-23.61-5.14-35.66-6.75C1008.24,268.78,996.09,267.63,983.81,266.79z"/>
	</g>
	<g>
		<path d="M1056.44,483.41c7.32-2.94,14.48-5.99,21.31-9.54c6.83-3.53,13.3-7.59,19.06-12.36c2.89-2.38,5.59-5,7.82-8.02
			c0.56-0.75,1.05-1.55,1.56-2.34c0.43-0.84,0.91-1.64,1.32-2.51c0.81-1.75,1.54-3.56,2.19-5.4c2.57-7.37,4.08-15.1,5.09-22.86
			c0.53-3.88,0.91-7.78,1.36-11.65l1.29-11.63c0.76-7.76,1.3-15.52,1.78-23.26c0.27-3.87,0.43-7.74,0.62-11.61
			c0.05-1.93,0.14-3.87,0.13-5.8c0.05-1.94,0.04-3.87,0.02-5.8c-0.17-7.71-0.54-15.47-2.76-22.99l0.54-0.25
			c2.12,3.4,3.56,7.23,4.61,11.1c0.52,1.94,1.01,3.89,1.36,5.87c0.41,1.97,0.69,3.95,0.96,5.94c1.01,7.94,1.21,15.94,0.91,23.89
			c-0.17,3.97-0.46,7.94-0.94,11.88c-0.44,3.94-1,7.87-1.62,11.78c-0.64,3.91-1.3,7.81-2.16,11.68c-0.82,3.87-1.86,7.7-2.89,11.52
			c-2.14,7.63-4.23,15.21-6.46,22.8c-0.56,1.9-1.13,3.8-1.74,5.71c-0.3,0.96-0.69,1.92-1.04,2.88c-0.44,0.92-0.83,1.89-1.3,2.8
			c-1.88,3.67-4.38,7.04-7.27,9.98c-2.89,2.94-6.2,5.4-9.68,7.49c-3.47,2.11-7.1,3.9-10.81,5.43c-1.86,0.76-3.74,1.45-5.64,2.07
			c-1.89,0.65-3.81,1.2-5.74,1.7c-3.86,1-7.77,1.78-11.76,2.11L1056.44,483.41z"/>
	</g>
	<g>
		<path d="M170.95,746.13c-0.49,4.31-0.44,8.65,0.02,12.91l0.15,1.6l0.27,1.59c0.19,1.05,0.32,2.11,0.57,3.15
			c0.53,2.07,0.98,4.15,1.71,6.15c1.24,4.07,3.17,7.87,5.23,11.55c0.53,0.91,1.16,1.77,1.74,2.65c0.6,0.87,1.14,1.77,1.76,2.62
			c1.34,1.63,2.61,3.32,4,4.9c5.62,6.3,12.43,11.48,19.7,15.82l2.71,1.66c0.92,0.52,1.89,0.97,2.83,1.47
			c1.9,0.96,3.78,1.95,5.69,2.88l5.89,2.5l2.94,1.26l3.03,1.07l6.04,2.14c1,0.38,2.04,0.65,3.07,0.95l3.09,0.89l6.18,1.78l6.28,1.45
			l6.27,1.48l6.35,1.17l6.35,1.17c2.12,0.39,4.27,0.61,6.4,0.92l6.41,0.88l3.21,0.44l3.22,0.33l12.9,1.34
			c4.31,0.32,8.64,0.56,12.95,0.92c2.16,0.15,4.32,0.36,6.48,0.46l6.5,0.26c34.64,1.61,69.59,1.3,104.33-1.72
			c2.17-0.15,4.34-0.37,6.51-0.6l6.5-0.67c4.34-0.44,8.67-0.88,13-1.39c4.34-0.45,8.66-1.05,12.98-1.62
			c4.32-0.56,8.64-1.17,12.96-1.79c4.31-0.63,8.64-1.17,12.94-1.9l12.9-2.16l12.89-2.19c4.27-0.71,8.52-1.67,12.78-2.54
			c17.03-3.64,33.95-7.82,50.83-12.08c8.44-2.14,16.86-4.36,25.27-6.57c8.38-2.35,16.81-4.52,25.16-6.98l12.54-3.62l12.49-3.79
			c8.35-2.45,16.6-5.2,24.9-7.82l24.76-8.21c8.2-2.9,16.41-5.74,24.59-8.68l12.25-4.47c4.08-1.49,8.18-2.96,12.18-4.57l6.04-2.37
			l6.01-2.49c4.01-1.64,8.01-3.33,12.01-5.04c4-1.68,7.98-3.44,11.96-5.2c3.99-1.74,7.95-3.53,11.91-5.33
			c3.97-1.78,7.94-3.57,11.9-5.39c3.96-1.8,7.92-3.62,11.87-5.47c31.61-14.69,63.04-29.86,94.43-45.19l0.43,0.79
			c-14.94,9.08-30.16,17.69-45.45,26.14c-7.65,4.23-15.33,8.4-23.05,12.49c-7.72,4.1-15.45,8.19-23.25,12.14
			c-3.89,2-7.79,3.97-11.7,5.93c-3.91,1.97-7.82,3.93-11.76,5.83c-3.94,1.91-7.87,3.83-11.84,5.68c-3.96,1.87-7.91,3.75-11.91,5.56
			c-3.99,1.82-7.96,3.67-12.01,5.38l-6.05,2.61l-6.11,2.5c-4.07,1.71-8.17,3.25-12.26,4.81l-12.28,4.69
			c-32.89,12.14-66.46,22.31-100.31,31.3c-33.82,9.09-68.07,16.5-102.6,22.28c-4.32,0.69-8.64,1.46-13.01,1.99l-13.01,1.68
			c-8.67,1.1-17.32,2.35-26.01,3.32c-4.34,0.51-8.68,1.02-13.01,1.58c-4.33,0.55-8.66,1.11-13.01,1.53
			c-8.69,0.86-17.36,2.01-26.06,2.84c-34.76,3.53-69.68,6.79-104.85,6.31l-6.59-0.1c-2.2-0.05-4.39-0.2-6.59-0.29
			c-4.39-0.21-8.79-0.45-13.18-0.76l-13.15-1.29c-1.1-0.11-2.19-0.2-3.29-0.33l-3.27-0.49l-6.55-0.98
			c-2.18-0.35-4.37-0.61-6.54-1.03l-6.51-1.28l-6.51-1.28l-6.45-1.6l-6.44-1.64l-6.35-2.01l-3.17-1.01
			c-1.06-0.34-2.12-0.64-3.16-1.07l-6.24-2.4l-3.11-1.2l-3.04-1.4l-6.07-2.84c-1.97-1.06-3.91-2.18-5.87-3.27
			c-0.97-0.56-1.96-1.08-2.91-1.66l-2.8-1.87l-2.8-1.87l-1.4-0.93l-1.33-1.05c-1.75-1.41-3.55-2.77-5.26-4.23l-4.88-4.68
			c-1.53-1.66-2.98-3.39-4.47-5.08c-1.4-1.77-2.66-3.65-3.99-5.47c-1.18-1.92-2.32-3.88-3.39-5.86c-1.94-4.07-3.7-8.23-4.72-12.61
			c-0.64-2.15-0.92-4.38-1.3-6.58c-0.17-1.1-0.21-2.22-0.33-3.33l-0.14-1.66l-0.02-1.67c-0.12-4.44,0.31-8.88,1.21-13.19
			L170.95,746.13z"/>
	</g>
	<g>
		<path d="M228.5,739.5c0.79,1.65,1.72,3.21,2.76,4.69c1.01,1.49,2.09,2.92,3.24,4.29c2.31,2.73,4.74,5.32,7.43,7.64
			c5.29,4.72,11.11,8.75,17.21,12.27c6.11,3.52,12.52,6.52,19.09,9.14c6.57,2.62,13.29,4.93,20.15,6.84
			c13.67,3.97,27.74,6.78,41.96,9.08c14.23,2.33,28.62,4.04,43.15,6.05c-14.56,1.73-29.28,1.96-43.96,0.98
			c-14.67-1.03-29.36-3.3-43.65-7.47c-1.78-0.55-3.58-1.01-5.34-1.62l-5.29-1.8c-1.76-0.62-3.48-1.35-5.22-2.03
			c-0.87-0.35-1.74-0.67-2.6-1.04l-2.56-1.16c-6.81-3.07-13.42-6.69-19.55-11.04c-6.12-4.35-11.83-9.36-16.59-15.18l-1.74-2.21
			l-1.63-2.29c-1.05-1.55-2.07-3.12-2.94-4.78C230.68,746.59,229.16,743.13,228.5,739.5z"/>
	</g>
	<g>
		<path d="M436.5,795.5c0.38-1.01,1.42-1.66,2.41-2.06c1.01-0.41,2.08-0.61,3.13-0.77c2.12-0.27,4.23-0.29,6.33-0.19
			c4.19,0.17,8.3,0.76,12.38,1.35c4.08,0.61,8.11,1.35,12.14,1.92c2.02,0.27,4.03,0.53,6.04,0.61c2,0.07,4.06,0.09,5.93-0.86
			c-0.72,0.77-1.72,1.26-2.73,1.61c-1.02,0.35-2.07,0.55-3.12,0.71c-2.11,0.28-4.22,0.32-6.32,0.25c-4.19-0.15-8.32-0.66-12.4-1.29
			l-12.15-1.99c-2.01-0.29-4.03-0.58-6.03-0.66c-1-0.06-2-0.04-2.98,0.1C438.17,794.4,437.17,794.68,436.5,795.5z"/>
	</g>
	<g>
		<path d="M377.5,762.5c6.59,0.23,13.13,0.18,19.67,0.1c3.27-0.04,6.54-0.05,9.81-0.16c1.63-0.06,3.27-0.06,4.9-0.08l4.9-0.13
			l39.19-1.15c3.27-0.06,6.53-0.18,9.8-0.3l9.81-0.25c6.54-0.21,13.08-0.38,19.64-0.45c3.28-0.06,6.55-0.17,9.83-0.19l9.84-0.07
			c6.57-0.01,13.14-0.04,19.74,0.24c-6.48,1.27-12.99,2.21-19.5,3.19c-6.52,0.86-13.05,1.62-19.59,2.28
			c-3.27,0.35-6.54,0.62-9.82,0.89c-3.28,0.28-6.55,0.5-9.83,0.74c-6.57,0.36-13.13,0.74-19.71,0.91l-9.86,0.22
			c-3.29,0.02-6.58,0.03-9.87,0c-3.29-0.01-6.58-0.08-9.87-0.19l-4.94-0.16l-4.94-0.28c-6.58-0.31-13.16-0.91-19.71-1.65
			C390.45,765.14,383.88,764.26,377.5,762.5z"/>
	</g>
	<g>
		<path d="M519.81,793.37c15.23-1.4,30.39-2.95,45.43-5.32c15.04-2.36,29.95-5.33,44.71-8.87c14.74-3.64,29.33-7.84,43.68-12.74
			c14.37-4.84,28.56-10.24,42.51-16.23c14-5.87,27.78-12.3,41.48-18.95c6.86-3.29,13.7-6.66,20.53-10.06l10.25-5.1l10.29-5.04
			c6.87-3.34,13.76-6.69,20.73-9.86c3.51-1.55,6.97-3.17,10.52-4.65l5.29-2.26l5.34-2.15c14.25-5.64,29.02-10.28,44.13-12.63
			c-14.79,3.88-29.02,9.32-42.78,15.79c-13.81,6.35-27.27,13.48-40.74,20.62c-13.44,7.22-26.97,14.33-40.61,21.28
			c-13.68,6.87-27.56,13.41-41.68,19.45c-14.16,5.93-28.54,11.38-43.18,16.07c-3.66,1.16-7.32,2.34-11.03,3.36l-5.54,1.59
			l-2.77,0.79l-2.79,0.72c-3.72,0.94-7.43,1.95-11.17,2.84l-11.25,2.47c-15.04,3.12-30.24,5.38-45.48,6.96
			C550.41,792.87,535.1,793.51,519.81,793.37z"/>
	</g>
	<g>
		<path d="M119.5,382.5c2.28,3.49,4.5,6.81,6.84,9.98c2.33,3.17,4.81,6.16,7.5,8.87c2.7,2.7,5.61,5.15,8.87,7.15
			c3.24,2.07,6.84,3.59,10.79,4.99c-4.12,0.68-8.52,0.13-12.53-1.47c-4.03-1.56-7.66-4.11-10.68-7.15
			c-3.02-3.05-5.47-6.59-7.31-10.37C121.17,390.72,119.83,386.69,119.5,382.5z"/>
	</g>
	<g>
		<path d="M124.2,379.53c-1.53-4.23-2.34-8.56-2.88-12.91c-0.26-2.18-0.44-4.36-0.52-6.55c-0.11-2.19-0.07-4.38,0.15-6.58
			c0.44-4.39,1.6-8.72,2.21-13.04c0.33-2.16,0.57-4.33,0.84-6.52c0.27-2.18,0.5-4.4,0.93-6.64c0.46-2.23,1-4.54,2.31-6.76
			c0.35-0.6,0.61-1,0.92-1.47c0.3-0.46,0.6-0.92,0.91-1.37l1.91-2.7c2.6-3.57,5.44-7.2,9.1-10.1c3.64-2.88,7.82-5.12,12.15-6.46
			c4.33-1.37,8.74-2.14,13.2-2.22l0.15,0.58c-3.94,2.06-7.83,3.87-11.45,5.96c-3.64,2.07-6.92,4.42-9.95,7.06
			c-3.04,2.62-5.93,5.57-8.78,8.72l-2.12,2.41c-0.35,0.41-0.71,0.81-1.07,1.21l-1.03,1.13c-1.17,1.35-2.26,3.11-3.12,4.99
			c-1.77,3.8-2.75,8.08-2.97,12.37c-0.24,4.3,0.53,8.64,0.87,12.92c0.17,2.14,0.22,4.28,0.18,6.42c-0.01,2.14-0.06,4.29-0.15,6.45
			c-0.18,4.31-0.45,8.64-1.19,13.04L124.2,379.53z"/>
	</g>
	<g>
		<path d="M147.5,350.5c3.82-4.71,8.41-8.74,13.26-12.43c4.87-3.68,10.15-6.89,15.74-9.6c2.8-1.35,5.68-2.6,8.65-3.66
			c1.49-0.5,2.98-1.06,4.5-1.51c1.53-0.44,3.07-0.85,4.62-1.25c6.22-1.53,12.74-2.29,19.35-2.17c6.6,0.12,13.31,1.11,19.74,3.12
			c6.42,2.05,12.52,5.02,18.13,8.66c11.07,7.49,19.81,17.49,26.3,28.24l-0.48-0.63c0.97,1.41,1.9,2.36,2.71,2.97
			c0.82,0.6,1.72,1,3.31,1c1.56,0.03,3.56-0.41,5.66-1.14c2.13-0.7,4.35-1.73,6.63-2.84c4.58-2.21,9.26-4.93,14.35-7.23
			c2.55-1.14,5.21-2.21,8.03-2.87c2.78-0.67,5.97-0.83,8.49,0.35c-2.76,0.27-4.95,1.53-6.99,3.02c-2.03,1.53-3.9,3.27-5.77,5.09
			c-3.72,3.66-7.4,7.53-11.65,11.26c-2.13,1.86-4.43,3.65-7.06,5.32c-2.65,1.63-5.66,3.14-9.36,4.02c-3.65,0.91-8.26,0.73-12.3-0.85
			c-0.98-0.41-2.03-0.8-2.88-1.35c-0.88-0.53-1.83-1.05-2.57-1.67c-0.75-0.6-1.61-1.21-2.25-1.86c-0.67-0.64-1.33-1.3-1.98-1.97
			l-0.48-0.63c-6.76-8.53-14.31-15.91-22.7-21.53c-4.27-2.67-8.71-4.94-13.38-6.7c-4.69-1.69-9.6-2.8-14.67-3.45
			c-5.07-0.63-10.32-0.76-15.67-0.41c-1.33,0.1-2.67,0.28-4.02,0.37c-1.35,0.12-2.69,0.34-4.05,0.5c-2.7,0.43-5.43,0.86-8.16,1.46
			C169.64,342.45,158.65,346.01,147.5,350.5z"/>
	</g>
	<g>
		<path d="M878.5,283.5c0.16-0.45,0.6-0.7,0.99-0.91c0.41-0.21,0.82-0.32,1.23-0.42c0.82-0.17,1.64-0.19,2.4-0.13
			c1.55,0.13,2.97,0.57,4.27,1.2c1.3,0.62,2.48,1.44,3.52,2.45c1.04,1.01,1.95,2.21,2.59,3.8c-1.72,0.18-3.15-0.06-4.51-0.37
			c-1.35-0.34-2.6-0.81-3.77-1.38c-1.17-0.58-2.27-1.24-3.33-1.98c-0.53-0.39-1.05-0.76-1.58-1.18
			C879.76,284.21,879.3,283.68,878.5,283.5z"/>
	</g>
	<g>
		<path d="M879.5,254.5c3.97,0.23,7.85,0.74,11.73,1.19c3.88,0.48,7.72,1.01,11.56,1.53c3.83,0.54,7.65,1.04,11.45,1.5
			c1.9,0.22,3.79,0.45,5.67,0.59c0.94,0.08,1.87,0.16,2.79,0.2c0.46,0.03,0.91,0.04,1.36,0.05l1.17,0.01l7.15,0.04l-4.68,4.86
			c-0.67,0.69-1.21,1.18-1.82,1.72c-0.6,0.52-1.21,1.02-1.85,1.48c-1.26,0.94-2.58,1.79-3.94,2.56c-2.73,1.52-5.67,2.68-8.71,3.37
			c-1.5,0.41-3.07,0.52-4.6,0.72c-1.56,0-3.09,0.12-4.62-0.13c-3.05-0.22-5.97-1.21-8.66-2.4c0.75,0.01,1.48,0.06,2.21,0.09
			c0.73,0.03,1.44,0.12,2.17,0.05c0.72-0.03,1.44-0.08,2.14-0.08c0.71-0.01,1.41-0.16,2.11-0.24c1.39-0.12,2.75-0.52,4.09-0.79
			c1.32-0.42,2.64-0.77,3.89-1.32c2.53-1.02,4.93-2.29,7.17-3.83l1.64-1.19c0.52-0.43,1.07-0.82,1.57-1.27
			c0.51-0.44,1.02-0.88,1.5-1.33c0.47-0.44,0.98-0.96,1.31-1.33l2.46,4.9l-0.51,0.04l-0.43,0.02c-0.27,0.01-0.55,0.02-0.81,0.01
			c-0.53,0-1.05-0.01-1.56-0.03c-1.03-0.03-2.04-0.1-3.05-0.18c-2.01-0.19-3.99-0.42-5.95-0.73c-3.93-0.6-7.8-1.41-11.62-2.36
			c-3.82-0.97-7.6-2.08-11.33-3.34c-1.86-0.64-3.71-1.33-5.55-2.02C883.12,256.08,881.3,255.34,879.5,254.5z"/>
	</g>
	<g>
		<path d="M675.5,376.5c-0.21,4.54-0.18,9.16,1.37,13.05c0.8,1.91,1.9,3.59,3.4,4.83c1.46,1.28,3.26,2.15,5.18,2.82
			c3.89,1.26,8.24,1.65,12.61,1.79c4.39,0.13,8.86,0.03,13.37-0.07c9.01-0.2,18.21-0.42,27.43,0.7c4.6,0.57,9.2,1.49,13.61,3.04
			c4.38,1.58,8.63,3.73,12.03,6.84c-4.13-1.98-8.41-3.26-12.78-3.99c-4.36-0.75-8.77-1.09-13.21-1.18
			c-8.88-0.22-17.83,0.39-26.94,0.59c-4.56,0.08-9.16,0.11-13.82-0.25c-2.33-0.19-4.68-0.46-7.03-0.94c-2.35-0.47-4.71-1.14-7-2.15
			c-2.27-1.04-4.5-2.44-6.22-4.41c-1.77-1.92-2.88-4.36-3.43-6.77C673.11,385.5,674.02,380.81,675.5,376.5z"/>
	</g>
	<g>
		<path d="M736.31,289c6.99,7.19,14.51,13.69,22.33,19.44c1.95,1.44,3.93,2.84,5.94,4.17l3.01,1.99l3.06,1.88
			c4.1,2.47,8.3,4.7,12.54,6.76c4.29,1.96,8.61,3.78,13.03,5.28c1.1,0.38,2.22,0.71,3.33,1.07l1.66,0.53l1.68,0.45
			c1.12,0.29,2.25,0.59,3.36,0.91l3.39,0.76c2.25,0.58,4.56,0.8,6.83,1.27c2.29,0.32,4.59,0.63,6.89,0.9c2.31,0.2,4.62,0.5,6.95,0.6
			l3.5,0.22l3.52,0.09l1.76,0.04c0.59,0.03,1.18,0.06,1.77,0.03l3.55-0.06c2.35,0.07,4.82-0.2,7.26-0.28l7.37-0.34l7.28-0.76
			c9.68-1.12,19.27-3.29,27.96-7.73c8.73-4.32,16.62-10.7,25.62-15.91c2.29-1.2,4.54-2.53,6.85-3.72l7.06-3.34
			c4.81-1.9,9.62-4.05,14.58-5.52l3.7-1.24c1.24-0.42,2.47-0.84,3.72-1.15l7.49-2l3.76-0.99c1.26-0.3,2.51-0.55,3.77-0.82
			c2.52-0.5,5.04-1.03,7.57-1.51l3.8-0.73c1.25-0.26,2.64-0.36,3.96-0.54c2.68-0.31,5.34-0.73,8.07-0.74
			c2.72-0.08,5.44-0.29,8.2-0.08l4.14,0.19l1.04,0.05l1.04,0.13l2.08,0.26l4.16,0.54c1.38,0.26,2.76,0.58,4.14,0.87l2.07,0.45
			l1.04,0.23l1.02,0.31l4.09,1.27c1.38,0.39,2.7,0.95,4.02,1.5c1.33,0.55,2.66,1.09,3.98,1.67l3.84,2c0.64,0.34,1.28,0.67,1.91,1.03
			l1.83,1.17c1.21,0.79,2.44,1.56,3.64,2.37c1.15,0.87,2.3,1.75,3.43,2.66c0.56,0.46,1.15,0.88,1.68,1.37l1.59,1.46
			c1.04,0.99,2.15,1.93,3.13,2.98c1.97,2.08,3.9,4.21,5.6,6.48c1.81,2.21,3.34,4.57,4.91,6.92c2.9,4.81,5.48,9.76,7.52,14.87
			c2.01,5.11,3.69,10.3,4.96,15.56c1.3,5.25,2.17,10.55,2.78,15.87c0.56,5.33,0.88,10.64,0.7,16.12l-0.09,2.07l-0.15,2.14
			l-0.12,1.16l-0.07,0.58l-0.03,0.29l-0.06,0.38c-0.08,0.5-0.18,1.1-0.28,1.49l-0.27,0.98c-0.73,2.59-1.49,5.04-2.31,7.49
			c-1.64,4.89-3.42,9.71-5.38,14.47c-1.96,4.76-4.15,9.44-6.58,14.03c-1.23,2.29-2.58,4.53-4.05,6.71l-1.13,1.62
			c-0.39,0.53-0.84,1.04-1.25,1.56c-0.78,1.04-1.82,1.99-2.77,2.89l-1.43-1.25c1.15-2.13,2.05-4.36,2.79-6.71
			c0.78-2.31,1.38-4.71,1.99-7.1c1.21-4.78,2.14-9.66,3.06-14.53c0.9-4.87,1.72-9.77,2.45-14.64c0.36-2.43,0.72-4.88,0.98-7.22
			l0.09-0.87c0.01-0.22-0.04-0.25-0.04-0.37l-0.07-1.35l-0.12-1.63l-0.18-1.7c-0.54-4.57-1.36-9.27-2.43-13.85
			c-1.04-4.6-2.32-9.12-3.81-13.54c-1.53-4.4-3.24-8.69-5.17-12.82c-2.02-4.08-4.18-8.02-6.62-11.73c-2.5-3.64-5.16-7.11-8.13-10.24
			c-0.71-0.81-1.53-1.5-2.28-2.27l-1.15-1.12c-0.38-0.38-0.82-0.69-1.22-1.03c-0.83-0.67-1.64-1.37-2.45-2.07
			c-0.85-0.64-1.73-1.24-2.6-1.86l-1.3-0.94c-0.45-0.28-0.92-0.54-1.38-0.82c-0.92-0.54-1.83-1.1-2.75-1.66
			c-0.95-0.49-1.93-0.94-2.89-1.43c-0.96-0.48-1.92-0.98-2.95-1.33l-3.04-1.18l-0.76-0.3l-0.79-0.23l-1.58-0.46
			c-1.06-0.3-2.11-0.64-3.18-0.92l-3.28-0.66l-1.65-0.34l-0.82-0.17l-0.84-0.1l-3.38-0.39c-2.24-0.36-4.56-0.31-6.86-0.45
			c-2.3-0.18-4.64-0.01-6.98,0c-1.18,0.04-2.31,0-3.55,0.09l-3.68,0.24c-2.45,0.17-4.92,0.28-7.38,0.42
			c-1.23,0.07-2.48,0.09-3.7,0.19l-3.66,0.35l-7.34,0.68c-1.24,0.08-2.44,0.27-3.64,0.46l-3.63,0.54
			c-4.89,0.63-9.59,1.78-14.34,2.96l-6.92,2.28c-2.24,0.92-4.47,1.89-6.7,2.89c-8.78,4.23-16.75,10.43-25.72,15.66
			c-4.47,2.63-9.14,4.98-13.93,7.06l-1.79,0.83c-0.6,0.27-1.21,0.46-1.82,0.7l-3.66,1.39l-3.67,1.41c-1.23,0.42-2.47,0.79-3.71,1.18
			l-7.48,2.33l-7.54,1.87c-2.54,0.61-5.01,1.27-7.68,1.68c-2.63,0.43-5.27,0.92-7.95,1.09c-10.68,1.04-21.68,0.3-32.16-2.46
			l-3.93-1.02c-1.29-0.4-2.58-0.82-3.86-1.24l-1.92-0.64l-1.89-0.72c-1.26-0.49-2.53-0.95-3.77-1.47c-2.46-1.1-4.93-2.18-7.3-3.45
			c-2.42-1.17-4.71-2.57-7.02-3.92c-4.55-2.81-8.87-5.94-12.95-9.31c-4.07-3.39-7.86-7.07-11.38-10.95c-3.5-3.9-6.75-8-9.63-12.32
			c-2.88-4.33-5.46-8.82-7.46-13.66L736.31,289z"/>
	</g>
	<path d="M524,440c0-3,4-38,85-17c0,0,5,22-2,26S524,445,524,440z"/>
	<path d="M588,394c-1.5-0.5,13.63-45,75.81,0c0,0,13.69,81.5-41.31,65.5c-1-31,23.11-20.35,22.06-43.17
		c-0.57-12.32-21.21-14.41-36.06-16.83C595.85,397.44,588.69,394.23,588,394z"/>
	<path d="M493.5,457.5c0,0-15,86.56-110-27.72c0,0-10,11.72-22,11.72c0,0,2-8-7-19c0,0-45,28-62,24c0,0,68.15-35.22,142.57-96.61
		l-0.57-44.39c-9-19-162-23-171-36c-10-14,92-93,195,5c0,0,27-9,40,0s-39,31-39,31v59c0,0-55,34-55,42s27.13,56.14,51,59
		C480.5,468.5,475.5,446.5,493.5,457.5z"/>
	<path class="st2" d="M305.5,256.5c0,0,30-13,52-2C357.5,254.5,329.5,266.5,305.5,256.5z"/>
	<path d="M615,314.81c0,0-83.5-36.31,7.5-90.31c95-49,226.41-25.14,242.2,48.43c-4.2,28.57-48.2,1.57-104.2,1.57
		S615,314.81,615,314.81z"/>
	<path class="st2" d="M609.5,285.5c2-54,73-49,83-63c0,0,10,4.64,12.5,34.32c0,0-24.5-0.32-45.5,13.68S609.5,285.5,609.5,285.5z"/>
	<path class="st2" d="M799.5,243.5c-4,18,33,15,34.39,20.22C832.5,259.5,828.5,241.5,799.5,243.5z"/>
	<path d="M966.33,327.5c0,0,15.17,5,14.17,27s65,40,64,60c0,0-4,10-45-2c0,0-22,20-12,47c0,0-41,39-67,89
		S735.83,772.37,347.67,736.43c-47.17-3.93-170.63-0.27-177.9-167.1C170.5,411.5,203.5,408.5,206.5,393.5s-1-28,7-32s17,17,17,58
		s102,72,102,72s192,62,460-64l162-67C954.5,360.5,958.17,333.5,966.33,327.5z"/>
	<path class="st2" d="M204.5,467.5c0,0,6-20,10-21S212.5,472.5,204.5,467.5z"/>
	<path class="st2" d="M238.5,471.5c0,0-40,62-4,74c0,0,8-28,10-46S238.5,471.5,238.5,471.5z"/>
	<path class="st2" d="M271.5,495.5c0,0,30,18,41,16c0,0,2.67,6-12.17,34c0,0-1.83,5,2.17,16c0,0-4,4-23-4c0,0-4-2-10,0
		c0,0-7-35-6-45S265.5,501.5,271.5,495.5z"/>
	<path class="st2" d="M336.5,517.5c0,0,16,11,81,13c0,0,0,38-2,39s-59,3-91-9C324.5,560.5,331.5,553.5,336.5,517.5z"/>
	<path class="st2" d="M446.5,529.5c0,0,28.17,2.22,54.09-4.39c0,0,5.91-1.61,23.41-1.11v46.28c0,0-86.5,2.22-87.5-2.78
		S449.5,544.5,446.5,529.5z"/>
	<path class="st2" d="M545.44,523.9c0,0,58.06-15.4,113.06-24.4c0,0,14,9,16,51c0,0-74.11,24.54-129.06,20.27V523.9z"/>
	<path class="st2" d="M689.5,486.5c0,0,127-38,144-36c0,0,20,56-134,88C699.5,538.5,688.5,501.5,689.5,486.5z"/>
	<path class="st2" d="M858.5,434.5c0,0,22-4,76-39c0,0,13-9,35-7c0,0,11,75.78-111,92.39V434.5z"/>
	<path class="st2" d="M861.5,569.5c0,0-38-51,59-77C920.5,492.5,910.5,539.5,861.5,569.5z"/>
	<path class="st2" d="M824.78,535.38c0,0,2.72,47.12,21.72,57.12c0,0-110,81-111,69c0,0,5-3-22-52c0,0-6-13-3-28
		C710.5,581.5,773.06,570.27,824.78,535.38z"/>
	<path class="st2" d="M570.5,621.5c0,0,49-1,112-33c0,0,0,25,29,85c0,0-75,36-139,29C572.5,702.5,565.5,623.5,570.5,621.5z"/>
	<path class="st2" d="M452.5,639.5c0,0,32.89,7.11,92.94-7.94c0,0-0.94,57.94,3.06,75.94c-7,6-74,2-87,4
		C464.5,690.5,452.5,661.5,452.5,639.5z"/>
	<path class="st2" d="M364.5,646.5c0,0,68-25,77,62c0,0-12.22,7-51.61,0C389.89,708.5,360.5,648.5,364.5,646.5z"/>
	<path class="st2" d="M299.5,639.5c0,0,34,11,40,10c0,0-1,11,18,55c0,0-19,3-39-9C326.5,672.5,299.5,657.5,299.5,639.5z"/>
	<path class="st2" d="M254.5,631.5c0,0,30,15,36,61c0,0-44.33-7-46.17-15.5C283.5,678.5,244.5,642.5,254.5,631.5z"/>
	<path class="st2" d="M207.5,616.5c0,0,25,20,24,48C231.5,664.5,210.5,637.5,207.5,616.5z"/>
</g>
<g id="Слой_3">
	<g>
		<rect x="1251" y="245.33" class="st3" width="4202.67" height="869.33"/>
		<path d="M1608.06,361.75c0,2.33-2.12,3.49-6.35,3.49c-15.87,0-39.94-1.37-72.2-4.13c-32.27-2.75-56.45-4.13-72.52-4.13
			c-20.31,0-32.17,0.74-35.55,2.22c-7.83,3.6-11.74,13.76-11.74,30.47c0,20.1,5.08,31.53,15.23,34.28
			c4.23,1.06,10.68,1.59,19.36,1.59c14.6,0,36.44-0.79,65.54-2.38c29.09-1.59,50.94-2.38,65.54-2.38c6.98,0,10.47,18.62,10.47,55.86
			c0,32.37-1.17,51.21-3.49,56.49c-1.48,3.81-4.34,5.71-8.57,5.71c2.75,0-3.92-0.74-20-2.22c-22.64-2.11-56.92-3.17-102.83-3.17
			c-14.81,0-23.17,0.11-25.07,0.32c-10.79,1.7-16.19,6.24-16.19,13.65c0,30.05,1.27,64.64,3.81,103.78
			c2.11,35.34,3.17,51.1,3.17,47.29c0,5.5-6.67,8.67-20,9.52c3.6-0.21-5.82-0.32-28.25-0.32c-39.57,0-65.06-1.38-76.49-4.13
			c-6.14-1.48-9.2-4.76-9.2-9.84c0-23.49,0.79-58.77,2.38-105.85c1.59-47.08,2.38-82.36,2.38-105.85c0-27.93-1.27-63.05-3.81-105.37
			c-3.81-65.38-5.82-100.5-6.03-105.37l-0.32-3.81c-0.21-5.29,2.96-7.93,9.52-7.93c15.66,0,39.3,0.32,70.93,0.95
			c31.63,0.63,55.38,0.95,71.25,0.95c16.93,0,42.37-1.27,76.33-3.81c33.96-2.54,59.4-3.81,76.33-3.81c10.58,0,16.5,4.34,17.77,13.01
			c0,9.1,0.42,22.75,1.27,40.94c0.42,4.66,1.79,13.65,4.13,26.98C1606.99,346.42,1608.06,355.41,1608.06,361.75z"/>
		<path d="M2086.35,481.41c0,66.02-21.06,121.35-63.16,165.99c-42.96,45.28-97.33,67.92-163.13,67.92
			c-65.38,0-119.65-22.85-162.82-68.55c-42.32-44.64-63.48-99.76-63.48-165.36c0-65.8,21.16-121.13,63.48-165.99
			c43.16-45.91,97.44-68.87,162.82-68.87c64.95,0,119.12,22.96,162.5,68.87C2065.09,360.7,2086.35,416.03,2086.35,481.41z
			 M1966.06,480.77c0-31.74-9.63-58.72-28.88-80.93c-20.1-23.27-45.81-34.91-77.12-34.91c-29.83,0-55.12,12.06-75.85,36.18
			c-20.1,23.28-30.15,50.04-30.15,80.3c0,32.37,9.41,59.35,28.25,80.93c19.89,22.64,45.81,33.96,77.76,33.96
			c29.83,0,55.22-11.95,76.17-35.86C1956.12,537.58,1966.06,511.03,1966.06,480.77z"/>
		<path d="M2574.49,481.41c0,66.02-21.06,121.35-63.16,165.99c-42.96,45.28-97.33,67.92-163.13,67.92
			c-65.38,0-119.65-22.85-162.82-68.55c-42.32-44.64-63.48-99.76-63.48-165.36c0-65.8,21.16-121.13,63.48-165.99
			c43.16-45.91,97.44-68.87,162.82-68.87c64.95,0,119.12,22.96,162.5,68.87C2553.22,360.7,2574.49,416.03,2574.49,481.41z
			 M2454.2,480.77c0-31.74-9.63-58.72-28.88-80.93c-20.1-23.27-45.81-34.91-77.12-34.91c-29.83,0-55.12,12.06-75.85,36.18
			c-20.1,23.28-30.15,50.04-30.15,80.3c0,32.37,9.41,59.35,28.25,80.93c19.89,22.64,45.81,33.96,77.76,33.96
			c29.83,0,55.22-11.95,76.17-35.86C2444.25,537.58,2454.2,511.03,2454.2,480.77z"/>
		<path d="M2913.45,708.97c-18.2,0-41.89-0.43-71.09-1.27c-38.09-0.85-61.79-1.38-71.09-1.59l-94.9-1.27
			c-9.52,0.21-23.17-0.21-40.94-1.27c-6.14-1.06-9.2-4.33-9.2-9.84c0-23.06,0.37-57.61,1.11-103.62
			c0.74-46.02,1.11-80.56,1.11-103.63c0-24.54-0.74-61.3-2.22-110.29c-1.48-48.98-2.22-85.74-2.22-110.29
			c0-4.65,3.17-6.98,9.52-6.98s15.81,0.32,28.41,0.95c12.59,0.63,21.95,0.95,28.09,0.95c6.98,0,17.35-0.37,31.1-1.11
			c13.75-0.74,24.12-1.11,31.1-1.11c3.17,0,4.65,2.01,4.44,6.03l-0.32,4.13c-2.54,39.78-5.4,99.55-8.57,179.32l-0.32,83.79
			c0,27.09,0.1,46.87,0.32,59.35c0.21,2.54,0.42,5.08,0.63,7.62c0.21,2.54,1.79,4.13,4.76,4.76c0.21,0,2.96,0,8.25,0
			c19.04,0,47.55-1,85.54-3.02c37.98-2.01,66.49-3.01,85.53-3.01c5.71,0,8.57,2.43,8.57,7.3c0,36.18-2.65,67.39-7.93,93.63
			c-1.06,5.5-3.28,8.78-6.67,9.84C2925.4,708.76,2921.07,708.97,2913.45,708.97z"/>
		<path d="M3565.67,693.74c0,4.44-0.95,7.2-2.86,8.25c-0.85,0.63-3.81,1.17-8.89,1.59c-12.91,1.27-31.1,1.9-54.59,1.9
			c-33.22,0-52.74-0.63-58.56-1.9c-5.82-1.27-8.73-4.13-8.73-8.57c0-16.71,0.79-41.84,2.38-75.38c1.59-33.53,2.38-58.66,2.38-75.38
			c0-8.25-2.33-13.01-6.98-14.28c-7.2-1.69-32.8-2.54-76.81-2.54c-44.23,0-70.04,0.85-77.44,2.54c-4.66,1.06-6.98,5.82-6.98,14.28
			c0,16.5,0.53,41.21,1.59,74.11c1.06,32.9,1.59,57.61,1.59,74.11c0,6.35-2.86,10.05-8.57,11.11c-6.77,1.27-26.66,1.9-59.67,1.9
			c-28.56,0-46.76-0.63-54.59-1.9c-6.14-1.06-9.2-4.33-9.2-9.84c0-22.85,1.11-57.34,3.33-103.47c2.22-46.12,3.33-80.72,3.33-103.78
			c0-24.54-1.06-61.41-3.17-110.61c-2.12-49.19-3.17-86.06-3.17-110.61c0-4.65,2.22-6.98,6.67-6.98c6.56,0,16.45,0.32,29.68,0.95
			c13.22,0.63,23.11,0.95,29.67,0.95c6.77,0,16.98-0.32,30.63-0.95c13.65-0.63,23.85-0.95,30.63-0.95c3.6,0,5.4,1.9,5.4,5.71
			c0,15.87-1.17,39.62-3.49,71.25c-2.33,31.63-3.49,55.38-3.49,71.25c0,7.41,2.01,11.74,6.03,13.01c5.5,1.7,32.58,2.54,81.25,2.54
			c45.28,0,71.52-0.84,78.71-2.54c5.08-1.27,7.62-5.6,7.62-13.01c0-15.23-0.74-38.24-2.22-69.03c-1.48-30.79-2.22-53.9-2.22-69.35
			c0-6.56,2.64-9.84,7.93-9.84c6.13,0,15.5,0.32,28.09,0.95c12.59,0.63,22.06,0.95,28.41,0.95c6.13,0,15.5-0.32,28.09-0.95
			c12.59-0.63,22.06-0.95,28.41-0.95c6.13,0,9.2,2.54,9.2,7.62c0,24.33-1.01,61.05-3.02,110.13c-2.01,49.09-3.01,85.91-3.01,110.45
			c0,23.07,1.11,57.66,3.33,103.78C3564.56,636.4,3565.67,670.88,3565.67,693.74z"/>
		<path d="M4064.92,481.41c0,66.02-21.06,121.35-63.16,165.99c-42.96,45.28-97.33,67.92-163.13,67.92
			c-65.38,0-119.65-22.85-162.82-68.55c-42.32-44.64-63.48-99.76-63.48-165.36c0-65.8,21.16-121.13,63.48-165.99
			c43.16-45.91,97.44-68.87,162.82-68.87c64.95,0,119.12,22.96,162.5,68.87C4043.65,360.7,4064.92,416.03,4064.92,481.41z
			 M3944.63,480.77c0-31.74-9.63-58.72-28.88-80.93c-20.1-23.27-45.81-34.91-77.12-34.91c-29.83,0-55.12,12.06-75.85,36.18
			c-20.1,23.28-30.15,50.04-30.15,80.3c0,32.37,9.41,59.35,28.25,80.93c19.89,22.64,45.81,33.96,77.76,33.96
			c29.83,0,55.22-11.95,76.17-35.86C3934.68,537.58,3944.63,511.03,3944.63,480.77z"/>
		<path d="M4491.16,547.74c0,53.96-6.46,90.77-19.36,110.45c-23.7,35.97-82.84,53.96-177.42,53.96c-42.74,0-75.65-3.28-98.71-9.84
			c-36.82-10.58-60.73-30.79-71.73-60.62c-5.5-14.6-8.25-40.62-8.25-78.08c0-8.67,0.32-21.58,0.95-38.72s0.95-29.94,0.95-38.4
			c0-24.54-1.17-61.36-3.49-110.45c-2.33-49.09-3.49-85.8-3.49-110.13c0-5.08,2.22-7.62,6.67-7.62c12.9,0,32.42,0.53,58.56,1.59
			c26.13,1.06,45.65,1.59,58.56,1.59c5.29,0,7.93,2.33,7.93,6.98c0,27.93-0.9,69.77-2.7,125.52c-1.8,55.76-2.7,97.6-2.7,125.52
			c0,33.22,3.49,55.65,10.47,67.29c9.31,15.87,28.77,23.8,58.4,23.8c43.37,0,65.06-21.05,65.06-63.16c0-30.68-0.74-76.7-2.22-138.06
			c-1.48-61.36-2.22-107.38-2.22-138.06c0-6.56,2.64-9.84,7.93-9.84c12.48,0,31.31-0.53,56.49-1.59
			c25.18-1.06,44.01-1.59,56.49-1.59c6.13,0,9.2,2.54,9.2,7.62c0,24.33-1.01,61.05-3.01,110.13c-2.01,49.09-3.02,85.91-3.02,110.45
			c0,6.77,0.1,16.98,0.32,30.63C4491.05,530.76,4491.16,540.97,4491.16,547.74z"/>
		<path d="M4770.14,557.58c0,42.96-18.09,79.77-54.27,110.45c-31.74,27.09-70.35,44.32-115.84,51.73c-1.7,0.21-3.07,0.32-4.13,0.32
			c-4.87,0-15.66-14.87-32.37-44.59c-16.72-29.72-25.07-47.87-25.07-54.43c0-2.33,1.59-3.81,4.76-4.44
			c30.68-6.98,50.99-12.9,60.94-17.77c22-11,33.01-27.29,33.01-48.88c0-13.75-7.2-29.09-21.58-46.02
			c-24.97-28.77-38.51-44.75-40.62-47.92c-14.6-22-21.9-46.34-21.9-73c0-38.72,17.88-70.88,53.64-96.48
			c29.2-21.16,65.06-34.91,107.59-41.26c2.33-0.21,4.13-0.32,5.4-0.32c3.17,0,5.71,2.54,7.62,7.62c5.5,15.45,18.3,43.38,38.4,83.79
			c0.63,1.27,0.95,2.33,0.95,3.17c0,3.6-1.9,5.4-5.71,5.4c-1.7,0-4.55-0.32-8.57-0.95c-4.02-0.63-7.09-0.95-9.2-0.95
			c-15.23,0-28.56,3.49-39.99,10.47c-13.76,8.04-20.63,19.26-20.63,33.64c0,12.91,7.62,28.78,22.85,47.61
			c26.87,33.86,40.94,51.63,42.21,53.32C4762.63,511.35,4770.14,534.52,4770.14,557.58z"/>
		<path d="M5147.83,604.87c0,9.1-1.8,25.82-5.4,50.15c-3.81,26.45-7.2,42.21-10.16,47.29c-2.54,4.02-6.03,6.03-10.47,6.03
			c-1.9,0-5.08-0.32-9.52-0.95c-15.45-2.12-60.52-3.17-135.21-3.17c-16.3,0-40.52-0.11-72.68-0.32
			c-32.17-0.21-56.29-0.32-72.36-0.32c-6.98,0-10.47-3.06-10.47-9.2c0-23.7,1.32-59.3,3.97-106.8c2.64-47.5,3.97-83.1,3.97-106.8
			c0-24.12-1.27-69.08-3.81-134.89c-0.63-16.93-1.8-42.21-3.49-75.85l-0.32-4.44c-0.43-4.86,2.22-7.3,7.93-7.3
			c15.66,0,39.2,0.43,70.62,1.27c31.42,0.85,54.96,1.27,70.62,1.27c15.44,0,38.72-0.42,69.82-1.27c31.1-0.84,54.38-1.27,69.82-1.27
			c11,0,17.35,4.13,19.04,12.38c1.06,4.87,2.7,19.63,4.92,44.27c2.22,24.65,3.33,39.62,3.33,44.91c0,4.44-2.12,6.67-6.35,6.67
			c-1.27,0-3.49-0.1-6.67-0.32c-56.29-4.65-106.85-6.98-151.71-6.98c-11.22,0-18.09,2.65-20.63,7.93
			c-1.06,2.54-1.59,10.69-1.59,24.44c0,14.39,2.11,23.91,6.35,28.56c3.6,4.02,10.47,6.03,20.63,6.03c2.11,0,6.24-0.16,12.38-0.48
			c6.13-0.32,11.21-0.48,15.23-0.48c26.66,0,53.64-0.74,80.93-2.22c2.33-0.21,8.14-0.74,17.46-1.59c7.19-0.84,12.9-1.27,17.14-1.27
			c5.08,0,7.62,2.44,7.62,7.3c0-4.44-1.9,11.74-5.71,48.56c-1.7,16.93-2.54,33.86-2.54,50.78c0,4.23-3.07,6.35-9.2,6.35l-28.56-3.17
			c-12.06-1.27-39.57-1.9-82.52-1.9h-33.64c-8.68,0-13.76,2.12-15.23,6.35c-0.21,1.06-0.32,7.62-0.32,19.68
			c0,16.08,1.06,26.45,3.17,31.1c3.6,8.04,17.14,12.8,40.62,14.28c-0.43,0,15.02,0,46.34,0c11.21,0,27.88-1,49.99-3.01
			c22.11-2.01,38.67-3.02,49.67-3.02C5145.5,593.44,5147.83,597.25,5147.83,604.87z"/>
	</g>
	<g>
	</g>
	<g>
	</g>
	<g>
	</g>
	<g>
	</g>
	<g>
	</g>
	<g>
	</g>
	<g>
	</g>
	<g>
	</g>
	<g>
	</g>
	<g>
	</g>
	<g>
	</g>
	<g>
	</g>
	<g>
	</g>
	<g>
	</g>
	<g>
	</g>
</g>
</svg>
